<svg version="1.1" xmlns="http://www.w3.org/2000/svg" xmlns:xlink="http://www.w3.org/1999/xlink" width="48" height="48" viewBox="0,0,256,256"><g transform=""><g fill="none" fill-rule="nonzero" stroke="none" stroke-width="1" stroke-linecap="butt" stroke-linejoin="miter" stroke-miterlimit="10" stroke-dasharray="" stroke-dashoffset="0" font-family="none" font-weight="none" font-size="none" text-anchor="none" style="mix-blend-mode: normal"><g transform="scale(5.33333,5.33333)"><path d="M13,4h23v40h-23z" fill="#2196f3"></path><path d="M15,6h19v4h-19zM15,12h19v4h-19zM15,18h19v4h-19zM15,24h19v4h-19z" fill="#37474f"></path><path d="M25,36c-1.10457,0 -2,0.89543 -2,2c0,1.10457 0.89543,2 2,2c1.10457,0 2,-0.89543 2,-2c0,-1.10457 -0.89543,-2 -2,-2z" fill="#bbdefb"></path><g fill="#76ff03"><path d="M31,7c-0.55228,0 -1,0.44772 -1,1c0,0.55228 0.44772,1 1,1c0.55228,0 1,-0.44772 1,-1c0,-0.55228 -0.44772,-1 -1,-1zM31,13c-0.55228,0 -1,0.44772 -1,1c0,0.55228 0.44772,1 1,1c0.55228,0 1,-0.44772 1,-1c0,-0.55228 -0.44772,-1 -1,-1zM31,19c-0.55228,0 -1,0.44772 -1,1c0,0.55228 0.44772,1 1,1c0.55228,0 1,-0.44772 1,-1c0,-0.55228 -0.44772,-1 -1,-1zM31,25c-0.55228,0 -1,0.44772 -1,1c0,0.55228 0.44772,1 1,1c0.55228,0 1,-0.44772 1,-1c0,-0.55228 -0.44772,-1 -1,-1z"></path></g></g></g><g fill="#607d8b" fill-rule="nonzero" stroke="none" stroke-width="1" stroke-linecap="butt" stroke-linejoin="miter" stroke-miterlimit="10" stroke-dasharray="" stroke-dashoffset="0" font-family="none" font-weight="none" font-size="none" text-anchor="none" style="mix-blend-mode: normal"><g transform="translate(150.64489,148.75278) scale(5.33098,5.33098)" id="overlay"><path d="M19.1,14.9c-0.1,-0.1 -5.1,-3.9 -6.2,-5.3c-0.5,-0.6 0.1,-2.1 0.1,-3.9c0,-1.1 -0.1,-2.3 -1.2,-3.3c-1.9,-1.9 -5,-2.8 -7.5,-2.1l4.7,4.7c0,0 0,1.3 -1.3,2.7c-1.4,1.3 -2.7,1.3 -2.7,1.3l-4.8,-4.7c-0.6,2.6 0.2,5.6 2.1,7.5c1.1,1.1 2.3,1.2 3.4,1.2c1.8,0 3.3,-0.7 3.8,-0.3c1.6,1.3 5.3,6.2 5.4,6.3c1.2,1.2 3.1,1.2 4.3,0.1c1.1,-1.1 1.1,-3 -0.1,-4.2zM17,18c-0.6,0 -1,-0.4 -1,-1c0,-0.6 0.4,-1 1,-1c0.6,0 1,0.4 1,1c0,0.6 -0.4,1 -1,1z"></path></g></g></g></svg>